<svg xmlns="http://www.w3.org/2000/svg" xmlns:svg="http://www.w3.org/2000/svg" xmlns:xlink="http://www.w3.org/1999/xlink" id="svg2985" width="48" height="48" version="1.1"><defs id="defs2987"><linearGradient id="linearGradient3876"><stop id="stop3878" offset="0" style="stop-color:#832f07;stop-opacity:1"/><stop style="stop-color:#7d2c06;stop-opacity:1" id="stop3880" offset=".669"/><stop id="stop3882" offset="1" style="stop-color:#000;stop-opacity:1"/></linearGradient><linearGradient id="linearGradient3854"><stop style="stop-color:#8c3303;stop-opacity:1" id="stop3856" offset="0"/><stop style="stop-color:#000;stop-opacity:1" id="stop3858" offset="1"/></linearGradient><radialGradient id="radialGradient3862" cx="8.266" cy="31.158" r="13.23" fx="8.266" fy="31.158" gradientTransform="matrix(-0.84250329,0.40840637,-0.63160073,-1.3029319,36.559251,70.98965)" gradientUnits="userSpaceOnUse" xlink:href="#linearGradient3854"/><linearGradient id="linearGradient3884" x1="27.371" x2="46.754" y1="47.236" y2="22.076" gradientTransform="matrix(0.98714021,0,0,0.98714021,-0.112798,0.1861512)" gradientUnits="userSpaceOnUse" xlink:href="#linearGradient3876"/><radialGradient id="radialGradient5114" cx="6.868" cy=".78" r="8.762" fx="6.868" fy=".78" gradientTransform="matrix(0.82079822,2.4024917,-1.0801943,0.36904239,5.8309693,-24.501118)" gradientUnits="userSpaceOnUse" xlink:href="#linearGradient3854"/></defs><metadata id="metadata2990"/><g id="layer3" style="opacity:1"><g id="g5537"><path id="path3842" d="m 1.2832291,6.3829735 0,15.0104005 25.1333659,25.990419 0,-16.84308 z" style="fill:url(#radialGradient3862);fill-opacity:1;stroke:#000;stroke-width:.98714024px;stroke-linecap:butt;stroke-linejoin:round;stroke-opacity:1"/><path id="path3844" d="m 26.416595,47.445489 0,-16.781384 20.359767,-9.56292 0,15.053888 z" style="fill:url(#linearGradient3884);fill-opacity:1;stroke:#000;stroke-width:.98714024px;stroke-linecap:butt;stroke-linejoin:round;stroke-opacity:1"/><path id="path3846" d="M 1.2832291,6.3563849 26.498968,30.642054 46.784986,21.131619 21.132989,0.62747085 c 0,0 -2.224918,0.34900676 -1.701408,1.61415635 0.52351,1.2651495 -1.224238,1.8860405 -3.620946,2.83568 C 11.186296,6.9095927 9.0539044,7.2352368 5.2531811,5.688069 3.879367,5.1288278 1.2832291,6.3563849 1.2832291,6.3563849 z" style="fill:#ba4503;fill-opacity:1;stroke:#000;stroke-width:.98714024px;stroke-linecap:butt;stroke-linejoin:round;stroke-opacity:1"/><path id="path3848" d="m 10.226527,11.446681 c 1.526904,1.548717 3.560029,2.162834 10.252074,-0.479885 6.849258,-2.7048021 6.151245,-3.0974347 4.62434,-4.4498359 C 23.576036,5.1645588 22.894765,4.5230075 17.250288,6.6042111 9.4412627,9.483517 8.6996228,9.8979631 10.226527,11.44668 z" style="fill:url(#radialGradient5114);fill-opacity:1;stroke:#000;stroke-width:.98714024px;stroke-linecap:butt;stroke-linejoin:miter;stroke-opacity:1"/><use id="use3850" width="48" height="48" x="0" y="0" transform="translate(7.1717365,6.0206784)" xlink:href="#path3848"/><use id="use3852" width="48" height="48" x="0" y="0" transform="matrix(0.99867743,-0.05141392,0.05141392,0.99867743,6.7099747,7.8099442)" xlink:href="#use3850"/></g></g></svg>