<svg xmlns="http://www.w3.org/2000/svg" xmlns:svg="http://www.w3.org/2000/svg" xmlns:xlink="http://www.w3.org/1999/xlink" id="svg2985" width="64" height="64" version="1.1"><defs id="defs2987"><linearGradient id="linearGradient2091"><stop id="stop2093" offset="0" style="stop-color:#000;stop-opacity:1"/><stop id="stop2095" offset="1" style="stop-color:#000;stop-opacity:0"/></linearGradient><linearGradient id="linearGradient3165"><stop id="stop3167" offset="0" style="stop-color:#e78181;stop-opacity:1"/><stop style="stop-color:#e15f5f;stop-opacity:1" id="stop8599" offset=".25"/><stop id="stop8601" offset=".68" style="stop-color:#c22f2f;stop-opacity:1"/><stop id="stop3169" offset="1" style="stop-color:#a40000;stop-opacity:1"/></linearGradient><linearGradient id="linearGradient7916"><stop id="stop7918" offset="0" style="stop-color:#fff;stop-opacity:1"/><stop id="stop7920" offset="1" style="stop-color:#fff;stop-opacity:0"/></linearGradient><radialGradient id="radialGradient2177-3" cx="23.071" cy="35.127" r="10.319" fx="23.071" fy="35.127" gradientTransform="matrix(0.914812,0.01265023,-0.00821502,0.213562,2.253914,27.18889)" gradientUnits="userSpaceOnUse" xlink:href="#linearGradient2091-0"/><linearGradient id="linearGradient2091-0"><stop id="stop2093-9" offset="0" style="stop-color:#000;stop-opacity:1"/><stop id="stop2095-1" offset="1" style="stop-color:#000;stop-opacity:0"/></linearGradient><radialGradient id="radialGradient7958-0" cx="6.573" cy="24.5" r="18.5" fx="6.573" fy="24.5" gradientTransform="matrix(-2.1314195e-8,2.5479117,-4.8841578,-2.2328085e-8,144.16406,-10.748097)" gradientUnits="userSpaceOnUse" xlink:href="#linearGradient3165-7"/><linearGradient id="linearGradient3165-7"><stop id="stop3167-1" offset="0" style="stop-color:#e78181;stop-opacity:1"/><stop style="stop-color:#e15f5f;stop-opacity:1" id="stop8599-3" offset=".25"/><stop id="stop8601-6" offset=".68" style="stop-color:#c22f2f;stop-opacity:1"/><stop id="stop3169-3" offset="1" style="stop-color:#a40000;stop-opacity:1"/></linearGradient><linearGradient id="linearGradient7961-1" x1="23.173" x2="23.1" y1="6" y2="43" gradientUnits="userSpaceOnUse" xlink:href="#linearGradient7955-4"/><linearGradient id="linearGradient7955-4"><stop id="stop7957-6" offset="0" style="stop-color:#c22f2f;stop-opacity:1"/><stop id="stop7959-1" offset="1" style="stop-color:#a40000;stop-opacity:1"/></linearGradient><linearGradient id="linearGradient2181-9" x1="31.972" x2="12.718" y1="17.042" y2="36.297" gradientTransform="matrix(1.0494758,-1.0494758,1.0494758,1.0494758,-26.939092,23.169297)" gradientUnits="userSpaceOnUse" xlink:href="#linearGradient7916-9"/><linearGradient id="linearGradient7916-9"><stop id="stop7918-8" offset="0" style="stop-color:#fff;stop-opacity:1"/><stop id="stop7920-5" offset="1" style="stop-color:#fff;stop-opacity:0"/></linearGradient><linearGradient id="linearGradient3933" x1="31.972" x2="12.718" y1="17.042" y2="36.297" gradientTransform="matrix(1.0494758,-1.0494758,1.0494758,1.0494758,-26.939092,23.169297)" gradientUnits="userSpaceOnUse" xlink:href="#linearGradient7916-9"/><filter id="filter4035" width="1.628" height="1.455" x="-.314" y="-.228"><feGaussianBlur id="feGaussianBlur4037" stdDeviation="2.013"/></filter></defs><metadata id="metadata2990"/><g id="layer2"><use id="use4152" width="64" height="64" x="0" y="0" transform="matrix(0.84344375,0.53721749,-0.53721749,0.84344375,47.402841,10.277409)" xlink:href="#g4144"/><use id="use3989" width="64" height="64" x="0" y="0" transform="matrix(0.95588294,0.29374786,-0.29374786,0.95588294,19.002222,1.9979348)" xlink:href="#use3987"/><use id="use4009" width="64" height="64" x="0" y="0" transform="matrix(0.9756233,0.219452,-0.219452,0.9756233,16.417778,3.4268038)" xlink:href="#rect3991"/><use id="use3987" width="64" height="64" x="0" y="0" transform="matrix(0.97550556,0.21997482,-0.21997482,0.97550556,16.467576,3.3647699)" xlink:href="#g3837"/><rect style="fill:#000;fill-opacity:1;fill-rule:nonzero;stroke:none;filter:url(#filter4035)" id="rect3991" width="15.38" height="21.213" x="13.965" y="19.099" ry="2.289"/><g id="g3837" transform="matrix(1.3339116,0,0,1.3339116,2.574019,-85.670844)"><rect id="rect3052" width="17" height="20" x="2.591" y="73.955" ry="1.273" style="fill:#fff;fill-opacity:1;fill-rule:nonzero;stroke:#7d7d7d;stroke-width:1;stroke-linecap:round;stroke-linejoin:round;stroke-miterlimit:4;stroke-opacity:1;stroke-dasharray:none;stroke-dashoffset:0"/><path id="path3823" d="m 5.0948153,90.959162 5.9928977,0" style="fill:none;stroke:#dedede;stroke-width:1px;stroke-linecap:butt;stroke-linejoin:miter;stroke-opacity:1"/><path style="fill:none;stroke:#dedede;stroke-width:1px;stroke-linecap:butt;stroke-linejoin:miter;stroke-opacity:1" id="path3825" d="m 5.0983665,88.948508 11.9928985,0"/><path id="path3827" d="m 5.0983665,86.952414 11.9928985,0" style="fill:none;stroke:#dedede;stroke-width:1px;stroke-linecap:butt;stroke-linejoin:miter;stroke-opacity:1"/><path style="fill:none;stroke:#dedede;stroke-width:1px;stroke-linecap:butt;stroke-linejoin:miter;stroke-opacity:1" id="path3829" d="m 5.0948153,83.959162 5.9928977,0"/><path id="path3831" d="m 5.0983665,81.948508 11.9928985,0" style="fill:none;stroke:#dedede;stroke-width:1px;stroke-linecap:butt;stroke-linejoin:miter;stroke-opacity:1"/><path style="fill:none;stroke:#dedede;stroke-width:1px;stroke-linecap:butt;stroke-linejoin:miter;stroke-opacity:1" id="path3833" d="m 5.0983665,79.952414 11.9928985,0"/><path id="path3835" d="m 5.0983665,77.952414 11.9928985,0" style="fill:none;stroke:#dedede;stroke-width:1px;stroke-linecap:butt;stroke-linejoin:miter;stroke-opacity:1"/></g><use id="use4114" width="64" height="64" x="0" y="0" transform="matrix(0.47915458,0,0,0.47915458,-0.51251517,62.668776)" xlink:href="#rect3991"/><g id="g4144" transform="matrix(1.276854,0,0,1.276854,-0.48128019,-18.894955)"><rect style="fill:#fff;fill-opacity:1;fill-rule:nonzero;stroke:#7d7d7d;stroke-width:1;stroke-linecap:round;stroke-linejoin:round;stroke-miterlimit:4;stroke-opacity:1;stroke-dasharray:none;stroke-dashoffset:0" id="rect4120" width="8.51" height="10.011" x="2.238" y="68.749" ry=".637"/><path style="fill:none;stroke:#dedede;stroke-width:1;stroke-linecap:butt;stroke-linejoin:miter;stroke-miterlimit:4;stroke-opacity:1;stroke-dasharray:none" id="path4122" d="m 3.4917606,77.260743 2.9998415,0"/><path style="fill:none;stroke:#dedede;stroke-width:1;stroke-linecap:butt;stroke-linejoin:miter;stroke-miterlimit:4;stroke-opacity:1;stroke-dasharray:none" id="path4126" d="m 3.4935382,75.719139 6.0032387,0"/><path id="path4128" d="m 3.4917606,73.889363 2.9998415,0" style="fill:none;stroke:#dedede;stroke-width:1;stroke-linecap:butt;stroke-linejoin:miter;stroke-miterlimit:4;stroke-opacity:1;stroke-dasharray:none"/><path style="fill:none;stroke:#dedede;stroke-width:1;stroke-linecap:butt;stroke-linejoin:miter;stroke-miterlimit:4;stroke-opacity:1;stroke-dasharray:none" id="path4130" d="m 3.4935382,72.33047 6.0032387,0"/><path style="fill:none;stroke:#dedede;stroke-width:1;stroke-linecap:butt;stroke-linejoin:miter;stroke-miterlimit:4;stroke-opacity:1;stroke-dasharray:none" id="path4134" d="m 3.4935382,70.750005 6.0032387,0"/></g></g><g id="layer3"><g id="layer1-9" transform="matrix(0.83206021,0,0,0.83206021,25.311861,-0.06016356)"><path id="path1361" d="m 33.278212,34.94062 c 0,1.281408 -4.620126,2.320194 -10.31934,2.320194 -5.699214,0 -10.31934,-1.038786 -10.31934,-2.320194 0,-1.281407 4.620126,-2.320194 10.31934,-2.320194 5.699214,0 10.31934,1.038787 10.31934,2.320194 z" transform="matrix(2.2288248,0,0,1.9190478,-27.171303,-25.505284)" style="opacity:.2557078;fill:url(#radialGradient2177-3);fill-opacity:1;stroke:none"/><path id="text1314" d="m 42.5,35.000459 -10.50009,-11 10.500001,-10 L 34.99991,6.5004602 24.499911,17.000459 13.999912,6.5004602 6.4999133,14.000459 l 10.4999977,10 -10.4999977,11 7.4999987,7.499999 10.499999,-10.5 9.5,10.5 L 42.5,35.000459 z" style="font-size:59.90107727px;font-style:normal;font-variant:normal;font-weight:700;font-stretch:normal;text-align:start;line-height:125%;writing-mode:lr-tb;text-anchor:start;fill:url(#radialGradient7958-0);fill-opacity:1;stroke:url(#linearGradient7961-1);stroke-width:1;stroke-linecap:butt;stroke-linejoin:round;stroke-miterlimit:4;stroke-opacity:1;stroke-dasharray:none;font-family:Bitstream Vera Sans"/><path id="path7076" d="m 41,35.000459 -10.50009,-11 10.5,-10 -6,-5.9999998 L 24.50022,18.500459 13.999912,8.0004592 7.9999123,14.000459 l 10.4999987,10 -10.4999987,11 5.9999997,6 10.499999,-10.5 L 34,41 41,35.000459 z" style="font-size:59.90107727px;font-style:normal;font-variant:normal;font-weight:700;font-stretch:normal;text-align:start;line-height:125%;writing-mode:lr-tb;text-anchor:start;opacity:.4;fill:none;stroke:url(#linearGradient3933);stroke-width:1;stroke-linecap:butt;stroke-linejoin:round;stroke-miterlimit:4;stroke-opacity:1;stroke-dasharray:none;font-family:Bitstream Vera Sans"/></g><use id="use4098" width="64" height="64" x="0" y="0" transform="matrix(0.37799979,0,0,0.37799979,-0.17347528,63.825548)" xlink:href="#layer1-9"/></g><g id="layer1" style="opacity:.8;display:none"><image id="image3855" width="24" height="24" x="0" y="64" xlink:href="file:///home/ban/progs/geany/icons/48x48/geany-close-all.png"/></g></svg>